<svg xmlns="http://www.w3.org/2000/svg" xmlns:xlink="http://www.w3.org/1999/xlink" fill="none" version="1.1" width="256" height="256" viewBox="0 0 256 256"><defs><clipPath id="master_svg0_42_726"><rect x="0" y="0" width="256" height="256" rx="0"/></clipPath></defs><g clip-path="url(#master_svg0_42_726)"><g><path d="M105.3501,32.38131015625C115.024,14.26678015625,140.977,14.26678015625,150.651,32.38131015625L239.932,199.40441015625C249.076,216.51941015625,236.681,237.20441015625,217.281,237.20441015625L38.7198,237.20441015625C19.31792,237.20041015625,6.92271,216.51541015625,16.06932,199.40441015625L105.3501,32.38131015625ZM131.23000000000002,42.75971015625C130.589,41.57281015625,129.349,40.83291015625,128.001,40.83291015625C126.652,40.83291015625,125.412,41.57281015625,124.771,42.75971015625L35.490300000000005,209.78341015625C34.1826,212.22541015625,35.9493,215.18041015625,38.7198,215.18541015625L217.281,215.18541015625C220.052,215.18041015625,221.819,212.22541015625,220.511,209.78341015625L131.23000000000002,42.75971015625Z" fill="#D29922" fill-opacity="1"/></g><g><path d="M98.852294921875,196.8884984375L115.508194921875,196.8884984375L115.508194921875,171.9046984375L128.000094921875,187.8942984375L140.491894921875,171.9046984375L140.491894921875,196.8884984375L157.147794921875,196.8884984375L157.147794921875,146.9208984375L140.491894921875,146.9208984375L128.000094921875,163.5767984375L115.508194921875,146.9208984375L98.852294921875,146.9208984375L98.852294921875,196.8884984375Z" fill="#D29922" fill-opacity="1"/></g><g><path d="M107.1802978515625,117.77335078125L127.9167978515625,146.92105078125002L148.8199978515625,117.77335078125L136.3279978515625,117.77335078125L136.3279978515625,92.78955078125L119.6721978515625,92.78955078125L119.6721978515625,117.77335078125L107.1802978515625,117.77335078125Z" fill="#D29922" fill-opacity="1"/></g></g></svg>